<svg width="128" height="53" viewBox="0 0 128 53" fill="none" xmlns="http://www.w3.org/2000/svg">
<path d="M61.7784 11C61.7405 10.5265 61.563 10.1572 61.2457 9.89205C60.9332 9.62689 60.4574 9.49432 59.8182 9.49432C59.411 9.49432 59.0772 9.54403 58.8168 9.64347C58.5611 9.73816 58.3717 9.86837 58.2486 10.0341C58.1255 10.1998 58.0616 10.3892 58.0568 10.6023C58.0473 10.7775 58.0781 10.9361 58.1491 11.0781C58.2249 11.2154 58.3433 11.3409 58.5043 11.4545C58.6652 11.5634 58.8712 11.6629 59.1222 11.7528C59.3731 11.8428 59.6714 11.9233 60.017 11.9943L61.2102 12.25C62.0152 12.4205 62.7041 12.6454 63.277 12.9247C63.8499 13.2041 64.3187 13.5331 64.6832 13.9119C65.0478 14.286 65.3153 14.7074 65.4858 15.1761C65.661 15.6449 65.7509 16.1562 65.7557 16.7102C65.7509 17.6667 65.5118 18.4763 65.0384 19.1392C64.5649 19.8021 63.8878 20.3063 63.0071 20.652C62.1312 20.9976 61.0777 21.1705 59.8466 21.1705C58.5824 21.1705 57.4792 20.9834 56.5369 20.6094C55.5994 20.2353 54.8703 19.66 54.3494 18.8835C53.8333 18.1023 53.5729 17.1032 53.5682 15.8864H57.3182C57.3419 16.3314 57.4531 16.7055 57.652 17.0085C57.8509 17.3116 58.1302 17.5412 58.4901 17.6974C58.8546 17.8537 59.2879 17.9318 59.7898 17.9318C60.2112 17.9318 60.5639 17.8797 60.848 17.7756C61.1321 17.6714 61.3475 17.527 61.4943 17.3423C61.6411 17.1577 61.7169 16.947 61.7216 16.7102C61.7169 16.4877 61.6435 16.2936 61.5014 16.1278C61.3641 15.9574 61.1368 15.8059 60.8196 15.6733C60.5024 15.536 60.0739 15.4081 59.5341 15.2898L58.0852 14.9773C56.7973 14.6979 55.7817 14.2315 55.0384 13.5781C54.2997 12.92 53.9328 12.0227 53.9375 10.8864C53.9328 9.96307 54.179 9.15578 54.6761 8.46449C55.178 7.76847 55.8717 7.22633 56.7571 6.83807C57.6473 6.44981 58.6676 6.25568 59.8182 6.25568C60.9924 6.25568 62.008 6.45218 62.8651 6.84517C63.7221 7.23816 64.3826 7.79214 64.8466 8.5071C65.3153 9.21733 65.5521 10.0483 65.5568 11H61.7784ZM72.5703 21.1989C71.3866 21.1989 70.3733 20.9645 69.5305 20.4957C68.6877 20.0223 68.0414 19.3641 67.5916 18.5213C67.1418 17.6738 66.9169 16.6913 66.9169 15.5739C66.9169 14.4564 67.1418 13.4763 67.5916 12.6335C68.0414 11.786 68.6877 11.1278 69.5305 10.6591C70.3733 10.1856 71.3866 9.94886 72.5703 9.94886C73.6404 9.94886 74.5661 10.143 75.3473 10.5312C76.1333 10.9148 76.7417 11.4593 77.1726 12.1648C77.6035 12.8655 77.8213 13.6894 77.826 14.6364H74.1896C74.1375 14.0634 73.9718 13.6278 73.6925 13.3295C73.4179 13.0265 73.0627 12.875 72.6271 12.875C72.2862 12.875 71.9879 12.9744 71.7322 13.1733C71.4766 13.3674 71.2777 13.6634 71.1357 14.0611C70.9936 14.4541 70.9226 14.9489 70.9226 15.5455C70.9226 16.142 70.9936 16.6392 71.1357 17.0369C71.2777 17.4299 71.4766 17.7259 71.7322 17.9247C71.9879 18.1188 72.2862 18.2159 72.6271 18.2159C72.916 18.2159 73.1716 18.1496 73.3942 18.017C73.6167 17.8797 73.7966 17.6809 73.9339 17.4205C74.076 17.1553 74.1612 16.8333 74.1896 16.4545H77.826C77.8118 17.4157 77.5916 18.2538 77.1655 18.9688C76.7393 19.679 76.1357 20.2282 75.3544 20.6165C74.5779 21.0047 73.6499 21.1989 72.5703 21.1989ZM83.364 14.8636V21H79.4435V6.45455H83.2219V12.1648H83.3356C83.5818 11.4687 83.9914 10.9266 84.5643 10.5384C85.1372 10.1454 85.8261 9.94886 86.631 9.94886C87.4028 9.94886 88.0728 10.1241 88.641 10.4744C89.2139 10.8248 89.6566 11.3078 89.9691 11.9233C90.2863 12.5388 90.4426 13.2443 90.4379 14.0398V21H86.5174V14.8636C86.5221 14.3239 86.3872 13.9001 86.1126 13.5923C85.8427 13.2846 85.4568 13.1307 84.9549 13.1307C84.6377 13.1307 84.3583 13.2017 84.1168 13.3438C83.8801 13.4811 83.6954 13.6799 83.5629 13.9403C83.435 14.196 83.3687 14.5038 83.364 14.8636ZM97.6289 21.1989C96.4452 21.1989 95.4319 20.9645 94.5891 20.4957C93.7463 20.0223 93.1 19.3641 92.6502 18.5213C92.2004 17.6738 91.9755 16.6913 91.9755 15.5739C91.9755 14.4564 92.2004 13.4763 92.6502 12.6335C93.1 11.786 93.7463 11.1278 94.5891 10.6591C95.4319 10.1856 96.4452 9.94886 97.6289 9.94886C98.8126 9.94886 99.8259 10.1856 100.669 10.6591C101.511 11.1278 102.158 11.786 102.608 12.6335C103.057 13.4763 103.282 14.4564 103.282 15.5739C103.282 16.6913 103.057 17.6738 102.608 18.5213C102.158 19.3641 101.511 20.0223 100.669 20.4957C99.8259 20.9645 98.8126 21.1989 97.6289 21.1989ZM97.6573 18.3011C97.9888 18.3011 98.2752 18.1899 98.5167 17.9673C98.7582 17.7448 98.9452 17.4276 99.0778 17.0156C99.2103 16.6037 99.2766 16.1136 99.2766 15.5455C99.2766 14.9725 99.2103 14.4825 99.0778 14.0753C98.9452 13.6634 98.7582 13.3461 98.5167 13.1236C98.2752 12.901 97.9888 12.7898 97.6573 12.7898C97.3069 12.7898 97.0063 12.901 96.7553 13.1236C96.5044 13.3461 96.3126 13.6634 96.18 14.0753C96.0475 14.4825 95.9812 14.9725 95.9812 15.5455C95.9812 16.1136 96.0475 16.6037 96.18 17.0156C96.3126 17.4276 96.5044 17.7448 96.7553 17.9673C97.0063 18.1899 97.3069 18.3011 97.6573 18.3011ZM110.129 21.1989C108.945 21.1989 107.932 20.9645 107.089 20.4957C106.246 20.0223 105.6 19.3641 105.15 18.5213C104.7 17.6738 104.475 16.6913 104.475 15.5739C104.475 14.4564 104.7 13.4763 105.15 12.6335C105.6 11.786 106.246 11.1278 107.089 10.6591C107.932 10.1856 108.945 9.94886 110.129 9.94886C111.313 9.94886 112.326 10.1856 113.169 10.6591C114.011 11.1278 114.658 11.786 115.108 12.6335C115.557 13.4763 115.782 14.4564 115.782 15.5739C115.782 16.6913 115.557 17.6738 115.108 18.5213C114.658 19.3641 114.011 20.0223 113.169 20.4957C112.326 20.9645 111.313 21.1989 110.129 21.1989ZM110.157 18.3011C110.489 18.3011 110.775 18.1899 111.017 17.9673C111.258 17.7448 111.445 17.4276 111.578 17.0156C111.71 16.6037 111.777 16.1136 111.777 15.5455C111.777 14.9725 111.71 14.4825 111.578 14.0753C111.445 13.6634 111.258 13.3461 111.017 13.1236C110.775 12.901 110.489 12.7898 110.157 12.7898C109.807 12.7898 109.506 12.901 109.255 13.1236C109.004 13.3461 108.813 13.6634 108.68 14.0753C108.547 14.4825 108.481 14.9725 108.481 15.5455C108.481 16.1136 108.547 16.6037 108.68 17.0156C108.813 17.4276 109.004 17.7448 109.255 17.9673C109.506 18.1899 109.807 18.3011 110.157 18.3011ZM121.294 6.45455V21H117.373V6.45455H121.294ZM58.1705 30.4545L60.5568 34.6875H60.6705L63.0852 30.4545H67.4886L63.142 37.7273L67.6591 45H63.142L60.6705 40.6818H60.5568L58.0852 45H53.5966L58.0568 37.7273L53.7386 30.4545H58.1705ZM69.2482 45V34.0909H72.9698V36.1648H73.0835C73.3107 35.483 73.699 34.9432 74.2482 34.5455C74.7975 34.1477 75.4509 33.9489 76.2085 33.9489C76.9755 33.9489 77.636 34.1525 78.19 34.5597C78.744 34.9621 79.0778 35.4972 79.1914 36.1648H79.305C79.4897 35.4972 79.8827 34.9621 80.484 34.5597C81.0853 34.1525 81.7908 33.9489 82.6005 33.9489C83.6469 33.9489 84.4944 34.285 85.1431 34.9574C85.7965 35.6297 86.1232 36.5246 86.1232 37.642V45H82.2028V38.6364C82.2028 38.1581 82.082 37.7841 81.8406 37.5142C81.5991 37.2396 81.2747 37.1023 80.8675 37.1023C80.4651 37.1023 80.1455 37.2396 79.9087 37.5142C79.6767 37.7841 79.5607 38.1581 79.5607 38.6364V45H75.8107V38.6364C75.8107 38.1581 75.69 37.7841 75.4485 37.5142C75.207 37.2396 74.8827 37.1023 74.4755 37.1023C74.2056 37.1023 73.9736 37.1638 73.7795 37.2869C73.5853 37.41 73.4338 37.5876 73.3249 37.8196C73.2208 38.0469 73.1687 38.3191 73.1687 38.6364V45H69.2482ZM91.0966 45.1705C90.4006 45.1705 89.785 45.0568 89.25 44.8295C88.7197 44.5975 88.303 44.2472 88 43.7784C87.697 43.3097 87.5455 42.7131 87.5455 41.9886C87.5455 41.392 87.6473 40.883 87.8509 40.4616C88.0545 40.0355 88.3385 39.6875 88.7031 39.4176C89.0677 39.1477 89.4915 38.9418 89.9744 38.7997C90.4621 38.6577 90.9877 38.5653 91.5511 38.5227C92.1619 38.4754 92.652 38.4186 93.0213 38.3523C93.3954 38.2812 93.6652 38.1842 93.831 38.0611C93.9967 37.9332 94.0795 37.7652 94.0795 37.5568V37.5284C94.0795 37.2443 93.9706 37.0265 93.7528 36.875C93.535 36.7235 93.2557 36.6477 92.9148 36.6477C92.5407 36.6477 92.2353 36.7306 91.9986 36.8963C91.7666 37.0573 91.6269 37.3059 91.5795 37.642H87.9716C88.0189 36.9792 88.2296 36.3684 88.6037 35.8097C88.9825 35.2462 89.5341 34.7964 90.2585 34.4602C90.983 34.1193 91.8873 33.9489 92.9716 33.9489C93.7528 33.9489 94.4536 34.0412 95.0739 34.2259C95.6941 34.4058 96.2221 34.6591 96.6577 34.9858C97.0933 35.3078 97.4247 35.6866 97.652 36.1222C97.884 36.553 98 37.0218 98 37.5284V45H94.3352V43.4659H94.25C94.0322 43.8731 93.767 44.2022 93.4545 44.4531C93.1468 44.7041 92.794 44.8864 92.3963 45C92.0033 45.1136 91.5701 45.1705 91.0966 45.1705ZM92.375 42.6989C92.6733 42.6989 92.9527 42.6373 93.2131 42.5142C93.4782 42.3911 93.6937 42.2135 93.8594 41.9815C94.0251 41.7495 94.108 41.4678 94.108 41.1364V40.2273C94.0038 40.2699 93.8925 40.3101 93.7741 40.348C93.6605 40.3859 93.5374 40.4214 93.4048 40.4545C93.277 40.4877 93.1397 40.5185 92.9929 40.5469C92.8509 40.5753 92.7017 40.6013 92.5455 40.625C92.2424 40.6723 91.9938 40.7505 91.7997 40.8594C91.6103 40.9635 91.4683 41.0938 91.3736 41.25C91.2836 41.4015 91.2386 41.572 91.2386 41.7614C91.2386 42.0644 91.3452 42.2964 91.5582 42.4574C91.7713 42.6184 92.0436 42.6989 92.375 42.6989ZM106.379 34.0909V36.9318H99.1914V34.0909H106.379ZM100.583 31.4773H104.504V41.4915C104.504 41.643 104.53 41.7708 104.582 41.875C104.634 41.9744 104.715 42.0502 104.824 42.1023C104.932 42.1496 105.072 42.1733 105.243 42.1733C105.361 42.1733 105.498 42.1591 105.654 42.1307C105.815 42.1023 105.934 42.0786 106.01 42.0597L106.578 44.8153C106.403 44.8674 106.152 44.9313 105.825 45.0071C105.503 45.0829 105.119 45.1326 104.674 45.1562C103.775 45.2036 103.02 45.1113 102.409 44.8793C101.798 44.6425 101.339 44.2708 101.031 43.7642C100.723 43.2576 100.574 42.6231 100.583 41.8608V31.4773ZM113.089 45.1989C111.924 45.1989 110.92 44.9763 110.077 44.5312C109.239 44.0814 108.593 43.4375 108.138 42.5994C107.689 41.7566 107.464 40.7481 107.464 39.5739C107.464 38.447 107.691 37.4621 108.146 36.6193C108.6 35.7765 109.242 35.1207 110.07 34.652C110.899 34.1832 111.877 33.9489 113.004 33.9489C113.827 33.9489 114.573 34.0767 115.241 34.3324C115.908 34.5881 116.479 34.9598 116.952 35.4474C117.426 35.9304 117.79 36.5175 118.046 37.2088C118.302 37.9001 118.43 38.679 118.43 39.5455V40.4545H108.685V38.2955H114.822C114.817 37.983 114.737 37.7083 114.58 37.4716C114.429 37.2301 114.223 37.0431 113.962 36.9105C113.707 36.7732 113.415 36.7045 113.089 36.7045C112.772 36.7045 112.48 36.7732 112.215 36.9105C111.95 37.0431 111.737 37.2277 111.576 37.4645C111.42 37.7012 111.337 37.9782 111.327 38.2955V40.625C111.327 40.9754 111.401 41.2879 111.548 41.5625C111.694 41.8371 111.905 42.0526 112.18 42.2088C112.454 42.3651 112.786 42.4432 113.174 42.4432C113.444 42.4432 113.69 42.4053 113.913 42.3295C114.14 42.2538 114.334 42.1449 114.495 42.0028C114.656 41.8561 114.774 41.6809 114.85 41.4773H118.43C118.307 42.2348 118.015 42.893 117.556 43.4517C117.097 44.0057 116.488 44.4366 115.731 44.7443C114.978 45.0473 114.097 45.1989 113.089 45.1989Z" fill="#030303"/>
<path d="M41.9583 6.62507H11.0417C8.59042 6.62507 6.625 8.61257 6.625 11.0417V41.9584C6.625 44.3876 8.59042 46.3751 11.0417 46.3751H41.9583C44.4096 46.3751 46.375 44.3876 46.375 41.9584V11.0417C46.375 8.61257 44.4096 6.62507 41.9583 6.62507ZM22.0833 37.5417L11.0417 26.5001L14.1554 23.3863L22.0833 31.2922L38.8446 14.5309L41.9583 17.6667L22.0833 37.5417Z" fill="#030303"/>
</svg>
